PathFileType	4	(X/Y/Z)	RBDS03\RBDS03runT25.trc																																																																																														
DataRate	CameraRate	NumFrames	NumMarkers	Units	OrigDataRate	OrigDataStartFrame	OrigNumFrames																																																																																										
150	150	7	32	mm	150	3937	4500																																																																																										
Frame#	Time	L.ASIS			L.Heel.Bottom			L.Heel.Lateral			L.Heel.Top			L.Iliac.Crest			L.MT1			L.MT5			L.PSIS			L.Shank.Bottom.Lateral			L.Shank.Bottom.Medial			L.Shank.Top.Lateral			L.Shank.Top.Medial			L.Thigh.Bottom.Lateral			L.Thigh.Bottom.Medial			L.Thigh.Top.Lateral			L.Thigh.Top.Medial			R.ASIS			R.MT5			R.Heel.Bottom			R.Heel.Lateral			R.Heel.Top			R.Iliac.Crest			R.MT1			R.PSIS			R.Shank.Bottom.Lateral			R.Shank.Bottom.Medial			R.Shank.Top.Lateral			R.Shank.Top.Medial			R.Thigh.Bottom.Lateral			R.Thigh.Bottom.Medial			R.Thigh.Top.Lateral			R.Thigh.Top.Medial		
		X1	Y1	Z1	X2	Y2	Z2	X3	Y3	Z3	X4	Y4	Z4	X5	Y5	Z5	X6	Y6	Z6	X7	Y7	Z7	X8	Y8	Z8	X9	Y9	Z9	X10	Y10	Z10	X11	Y11	Z11	X12	Y12	Z12	X13	Y13	Z13	X14	Y14	Z14	X15	Y15	Z15	X16	Y16	Z16	X17	Y17	Z17	X18	Y18	Z18	X19	Y19	Z19	X20	Y20	Z20	X21	Y21	Z21	X22	Y22	Z22	X23	Y23	Z23	X24	Y24	Z24	X25	Y25	Z25	X26	Y26	Z26	X27	Y27	Z27	X28	Y28	Z28	X29	Y29	Z29	X30	Y30	Z30	X31	Y31	Z31	X32	Y32	Z32
																																																																																																	
3938	26.24666667	2354.156849	1089.714129	923.8268908	1778.318242	236.7100455	981.3541713	1804.622551	212.4645924	934.7809239	1821.810056	261.1345018	971.8639448	2301.196989	1165.698475	877.8735421	1946.601607	89.00314385	1025.05329	1900.633428	88.02824334	923.9320977	2186.658471	1138.472779	984.059734	1912.01158	292.3414103	910.9130887	1875.254482	312.9377316	945.6346334	1941.908066	365.5753114	898.1600422	1905.551052	386.8500745	931.5988512	2122.897869	682.364776	892.9252079	2068.440525	708.5040551	935.7945556	2155.88422	785.4288729	872.3585272	2102.063311	810.9644063	910.1251337	2349.777918	1104.076619	1131.91074	2356.669356	76.94996977	1162.918614	2183.856819	132.6665165	1066.911602	2217.601051	140.4255348	1118.812049	2207.301748	175.7565653	1071.474867	2291.471031	1190.512548	1171.992608	2393.26	81.03531635	1054.11857	2187.929125	1143.521136	1068.19978	2274.945134	240.3744319	1136.292804	2247.686836	255.0873563	1094.712879	2288.118345	322.5772095	1154.006501	2259.265394	333.425188	1110.23747	2392.455764	698.7807114	1180.531473	2329.882195	672.4384234	1154.800831	2344.523425	797.3836118	1194.68425	2285.9674	772.6358259	1168.501733
3939	26.25333333	2356.256633	1092.965821	924.3425406	1768.665249	250.0806803	979.7090438	1793.897775	224.5269944	933.2283166	1812.99278	272.853811	969.8053135	2303.584909	1169.227178	878.5210021	1932.125151	96.72736662	1023.778248	1885.995928	95.81882979	923.1786476	2188.350616	1141.781071	984.1014757	1903.522443	300.6561315	909.3638144	1866.959725	321.9652368	943.8285274	1934.984005	373.2231777	896.768641	1898.78125	395.2218122	929.8841063	2122.424448	686.2240596	892.2679676	2067.819554	712.8350805	934.5857754	2156.525471	788.8831518	871.7210426	2102.492509	814.9467404	908.7649178	2351.086605	1106.206457	1132.234138	2383.175692	73.94365813	1160.900536	2207.181006	119.0138325	1064.918833	2240.150139	128.5201031	1116.994931	2227.696763	163.5310527	1069.965873	2292.972499	1193.448394	1172.317712	2419.534148	81.52294544	1052.184623	2189.481617	1146.384762	1068.325755	2290.748128	232.7182643	1134.923173	2262.993518	246.0052553	1093.150393	2298.728815	315.4667107	1152.974707	2269.724888	324.8305389	1109.000334	2386.692328	697.730279	1180.378242	2323.960498	672.4263075	1154.268442	2340.37056	797.069219	1194.45806	2281.493365	773.2441504	1168.152496
3940	26.26	2358.075506	1095.687203	924.6158704	1758.770754	263.5746261	977.9528192	1783.02068	236.7232116	931.6673269	1803.908581	284.6595829	967.8005097	2305.399208	1172.222588	879.0369781	1917.035451	104.887689	1023.039757	1871.01149	104.1224274	922.8306038	2189.869837	1144.475503	984.1982581	1894.910164	309.0065075	908.0249518	1858.681948	331.1866072	942.2616127	1928.223598	380.7243999	895.5426473	1892.30947	403.6073388	928.3509564	2123.070668	689.0592396	891.4566552	2068.205268	716.0050492	933.1430884	2158.012493	791.3894449	870.9561134	2103.5946	817.8422604	907.094641	2352.391977	1107.741615	1132.393296	2408.750829	72.5774771	1158.999906	2230.265063	106.9459435	1063.175552	2262.40683	118.102291	1115.398084	2247.792347	152.6661182	1068.710866	2294.453194	1195.413682	1172.689529	2444.557144	83.70998842	1050.337277	2190.878418	1148.55947	1068.509037	2306.016625	226.1790499	1133.69263	2277.90194	238.0288408	1091.722825	2308.924856	309.1625889	1151.979156	2279.885157	317.0674817	1107.787299	2380.749997	696.083574	1180.445401	2317.966533	672.0061508	1153.599914	2336.077714	796.1373191	1194.613467	2277.043452	773.4086712	1167.830324
3941	26.26666667	2359.638959	1097.855595	924.6775895	1748.793769	277.1933747	975.9938318	1772.146184	249.0083044	930.0294487	1794.728602	296.5300096	965.7669699	2306.656716	1174.669623	879.4161958	1901.438406	113.4422487	1022.850553	1855.775272	112.8450793	922.863361	2191.229414	1146.546646	984.3326117	1886.263563	317.3725728	906.8395055	1850.523683	340.5425866	940.9071292	1921.667337	388.0684513	894.4570654	1886.192021	411.9589938	927.0046699	2124.699492	690.8731917	890.5362024	2069.496801	718.0165984	931.5733765	2160.203188	792.9666155	870.1193788	2105.26846	819.6665765	905.2506916	2353.661838	1108.708209	1132.414243	2433.080857	72.77530785	1157.236296	2252.789283	96.45017478	1061.694288	2284.073701	109.1646794	1114.027164	2267.29754	143.1483609	1067.713881	2295.880132	1196.447236	1173.089386	2468.036018	87.45201789	1048.599511	2192.122407	1150.061579	1068.731328	2320.553578	220.7473561	1132.600543	2292.188769	231.1543079	1090.445432	2318.575689	303.6928896	1151.016307	2289.581463	310.166261	1106.607361	2374.736395	693.9715905	1180.68443	2312.006608	671.2813358	1152.779335	2331.715625	794.7100652	1195.088155	2272.694198	773.2296359	1167.483761
3942	26.27333333	2360.97831	1099.460362	924.5674044	1738.946437	290.9446704	973.7675883	1761.461416	261.3568448	928.2610895	1785.667418	308.4471705	963.6364466	2307.398428	1176.551738	879.657638	1885.484939	122.3575313	1023.164528	1840.404886	121.9115542	923.2183183	2192.440801	1147.988593	984.4809803	1877.708146	325.7317178	905.7502113	1842.615725	349.9710692	939.7282202	1915.389096	395.2434439	893.4825114	1880.50991	420.2267751	925.8368247	2127.153568	691.6982833	889.5592031	2071.580404	718.9020888	929.9983888	2162.937269	793.6597782	869.2692777	2107.407759	820.4613214	903.389297	2354.858739	1109.135806	1132.328592	2455.850298	74.3823275	1155.623651	2274.41157	87.44899779	1060.470098	2304.830678	101.6386384	1112.873013	2285.904162	134.9080337	1066.957331	2297.221642	1196.615919	1173.494897	2489.69031	92.51296952	1046.991423	2193.214883	1150.913371	1068.967619	2334.166925	216.3589491	1131.639818	2305.627943	225.3293091	1089.328743	2327.559524	299.0380881	1150.087196	2298.653465	304.1146162	1105.477582	2368.76005	691.5283174	1181.024314	2306.178173	670.3382963	1151.803248	2327.353874	792.913183	1195.780959	2268.500935	772.7912723	1167.065098
3943	26.28	2362.125168	1100.502531	924.3290013	1729.480455	304.8399446	971.251737	1751.172672	273.7653451	926.334737	1776.969147	320.395435	961.3685344	2307.686185	1177.852221	879.7645509	1869.35401	131.6019976	1023.881843	1825.026278	131.2745276	923.8080503	2193.511653	1148.796933	984.6152475	1869.394398	334.0584185	904.7063342	1835.106849	359.4093127	938.6857448	1909.487786	402.2347685	892.5886779	1875.362348	428.359008	924.8304515	2130.271142	691.5890943	888.5778393	2074.341338	718.7168796	928.5398093	2166.053303	793.5316881	868.4591844	2109.912657	820.2867999	901.6683736	2355.943684	1109.057237	1132.171211	2476.752689	77.1562167	1154.166596	2294.77572	79.80467769	1059.47887	2324.342608	95.39372164	1111.911573	2303.297038	127.8229972	1066.403448	2298.449412	1196.008214	1173.883471	2509.262894	98.56631791	1045.525851	2194.154147	1151.139683	1069.188042	2346.672151	212.8949298	1130.798003	2317.99771	220.4538369	1088.376545	2335.763655	295.1300834	1149.196894	2306.949581	298.857686	1104.419894	2362.929605	688.8795654	1181.379725	2300.570316	669.2394602	1150.680056	2323.06177	790.864628	1196.563879	2264.501377	772.1540305	1166.534355
3944	26.28666667	2363.107132	1100.993223	924.0056471	1720.669622	318.8893398	968.4740778	1741.491834	286.2503698	924.2552687	1768.890556	332.3584767	958.9586986	2307.598025	1178.556411	879.7447112	1853.236313	141.1405914	1024.860402	1809.763464	140.9190108	924.5242851	2194.444938	1148.967371	984.7049963	1861.484403	342.3244928	903.6683595	1828.152106	368.7956591	937.7446761	1904.076677	409.0244032	891.7473181	1870.858059	436.3030119	923.9652063	2133.90062	690.6139719	887.6364275	2077.673964	717.5315586	927.3045595	2169.404856	792.6530641	867.7309587	2112.699326	819.213985	900.2291063	2356.880168	1108.508354	1131.978124	2495.501703	80.76629	1152.857607	2313.521689	73.33059428	1058.677271	2342.26935	90.24330809	1111.104982	2319.165706	121.7286597	1065.998064	2299.539392	1194.726549	1174.235278	2526.530226	105.2051584	1044.204773	2194.935166	1150.764893	1069.360366	2357.894095	210.1867023	1130.05862	2329.087983	216.3848082	1087.583786	2343.082997	291.8556614	1148.352567	2314.330431	294.301271	1103.455861	2357.353617	686.1321481	1181.662038	2295.266085	668.0190522	1149.428387	2318.909803	788.6639358	1197.298503	2260.72245	771.3498542	1165.862486
